<svg id="Capa_1" enable-background="new 0 0 512 512" height="512" viewBox="0 0 512 512" width="512" xmlns="http://www.w3.org/2000/svg"><g><path d="m509.803 386.971-99.917-99.917c-8.987-8.987-20.935-13.936-33.645-13.936-12.709 0-24.657 4.949-33.644 13.936l-14.453 14.452-49.837-49.837c-4.232-4.232-9.378-7.008-14.808-8.328v-203.776c0-4.142-3.358-7.5-7.5-7.5s-7.5 3.358-7.5 7.5v8.532h-56.629c-8.556 0-15.516 6.96-15.516 15.516v16.548h-48.613c-2.702 0-5.195 1.454-6.526 3.805-1.332 2.352-1.295 5.237.095 7.554l21.733 36.222-21.733 36.222c-1.39 2.317-1.427 5.203-.095 7.554 1.331 2.351 3.824 3.805 6.526 3.805h72.146c4.142 0 7.5-3.358 7.5-7.5s-3.358-7.5-7.5-7.5h-58.899l17.233-28.722c1.425-2.375 1.425-5.343 0-7.718l-17.233-28.722h35.367v40.597c0 4.142 3.358 7.5 7.5 7.5h64.645v100.083c-5.43 1.32-10.576 4.096-14.808 8.328l-77.894 77.894-2.428-2.428c-18.551-18.551-48.737-18.553-67.289 0l-83.884 83.885c-2.929 2.929-2.929 7.678 0 10.606 1.464 1.464 3.384 2.197 5.303 2.197s3.839-.732 5.303-2.197l83.884-83.885c12.704-12.702 33.374-12.703 46.076 0l2.428 2.428-126.962 126.963c-2.929 2.929-2.929 7.678 0 10.606 2.929 2.929 7.678 2.929 10.606 0l106.923-106.923 11.417 11.417c4.587 4.588 10.614 6.881 16.64 6.881s12.052-2.293 16.64-6.881l27.084-27.084c.038-.037.151-.151.365-.151s.328.114.365.151l11.052 11.052c9.176 9.175 24.105 9.174 33.28 0l29.911-29.912c3.062-3.062 8.045-3.062 11.107 0 2.929 2.929 7.678 2.929 10.606 0 2.929-2.929 2.929-7.678 0-10.606-8.91-8.911-23.41-8.911-32.32 0l-29.911 29.911c-3.326 3.327-8.74 3.328-12.067 0l-11.052-11.052c-2.931-2.931-6.827-4.544-10.972-4.544s-8.041 1.614-10.971 4.544l-27.084 27.084c-3.326 3.327-8.739 3.327-12.066 0l-11.417-11.417 97.934-97.934c3.126-3.125 7.281-4.847 11.702-4.847s8.576 1.721 11.702 4.847l93.926 93.926-7.409 7.409c-3.327 3.326-8.739 3.326-12.066 0l-15.566-15.566c-2.929-2.929-7.678-2.929-10.606 0-2.929 2.929-2.929 7.678 0 10.606l15.566 15.566c4.587 4.588 10.614 6.881 16.64 6.881s12.052-2.293 16.64-6.881l7.409-7.409 110.931 110.931c1.464 1.464 3.384 2.197 5.303 2.197s3.839-.732 5.303-2.197c2.929-2.929 2.929-7.678 0-10.606l-155.022-155.018 14.453-14.452c6.154-6.153 14.335-9.542 23.038-9.542s16.884 3.389 23.038 9.542l99.917 99.917c1.464 1.464 3.384 2.197 5.303 2.197s3.839-.732 5.303-2.197c2.929-2.929 2.929-7.678-.001-10.607zm-318.448-258.713v-64.645c0-.285.231-.516.516-.516h56.629v65.162h-57.145z"/></g></svg>